<?xml version="1.0" encoding="UTF-8"?>
<svg width="100px" height="17px" viewBox="0 0 100 17" version="1.1" xmlns="http://www.w3.org/2000/svg" xmlns:xlink="http://www.w3.org/1999/xlink">
    <!-- Generator: Sketch 52.2 (67145) - http://www.bohemiancoding.com/sketch -->
    <title>Artboard</title>
    <desc>Created with Sketch.</desc>
    <defs>
        <filter x="-438.6%" y="-2412.5%" width="977.3%" height="4925.0%" filterUnits="objectBoundingBox" id="filter-1">
            <feOffset dx="30" dy="22" in="SourceAlpha" result="shadowOffsetOuter1"></feOffset>
            <feGaussianBlur stdDeviation="187" in="shadowOffsetOuter1" result="shadowBlurOuter1"></feGaussianBlur>
            <feColorMatrix values="0 0 0 0 0   0 0 0 0 0   0 0 0 0 0  0 0 0 0.219259511 0" type="matrix" in="shadowBlurOuter1" result="shadowMatrixOuter1"></feColorMatrix>
            <feMerge>
                <feMergeNode in="shadowMatrixOuter1"></feMergeNode>
                <feMergeNode in="SourceGraphic"></feMergeNode>
            </feMerge>
        </filter>
    </defs>
    <g id="Artboard" stroke="none" stroke-width="1" fill="none" fill-rule="evenodd">
        <g id="Group" filter="url(#filter-1)" transform="translate(2.000000, 0.000000)" fill="#FFFFFF">
            <g id="p1-link" transform="translate(86.000000, 0.000000)">
                <path d="M0.0153846154,0.0241509434 C0.667692308,0.0173584906 1.32307692,0.0196226415 1.97576923,0.0233962264 C1.98153846,0.668301887 1.97769231,1.31358491 1.97807692,1.95849057 C1.83038462,1.98301887 1.68692308,1.97584906 1.53846154,1.97735849 C1.02884615,1.98 0.519615385,1.98566038 0.01,1.98792453 C0.00461538462,1.42566038 0.0103846154,0.863396226 0.00730769231,0.301132075 C0.00769230769,0.209433962 0.00423076923,0.115471698 0.0153846154,0.0241509434 Z" id="p1"></path>
            </g>
            <g id="p2-link" transform="translate(28.000000, 1.000000)">
                <path d="M0.0188461538,0.0154639175 C0.670769231,-0.00103092783 1.32692308,0.0113402062 1.97923077,0.00979381443 C1.98538462,4.85 1.97923077,9.69536082 1.98230769,14.5360825 C1.98269231,14.6773196 1.98153846,14.8185567 1.97846154,14.9603093 C1.325,14.9623711 0.670384615,14.9721649 0.0173076923,14.9551546 C0.0142307692,10.107732 0.0173076923,5.25927835 0.0157692308,0.41185567 C0.0157692308,0.279896907 0.0123076923,0.146907216 0.0188461538,0.0154639175 Z" id="p2"></path>
            </g>
            <g id="p3-link" transform="translate(0.000000, 2.000000)">
                <path d="M0.00779026217,0.0391791045 C0.837453184,0.0339552239 1.667603,0.0334328358 2.49726592,0.0391791045 C2.50505618,3.0141791 2.49483146,5.99022388 2.50213483,8.96522388 C5.16689139,8.96783582 7.83213483,8.96835821 10.4968914,8.96522388 C10.5037079,5.99022388 10.49397,3.01470149 10.5017603,0.0397014925 C11.3304494,0.0329104478 12.1601124,0.0334328358 12.9888015,0.0397014925 C12.9902622,4.67850746 12.9926966,9.31940299 12.9873408,13.958209 C12.1596255,13.9660448 11.3304494,13.9655224 10.5027341,13.9587313 C10.4934831,13.1913433 10.503221,12.4234328 10.4978652,11.6560448 C10.2763296,11.629403 10.0577154,11.6398507 9.83520599,11.6393284 C7.61157303,11.6393284 5.38842697,11.6393284 3.16479401,11.6393284 C2.94228464,11.6398507 2.72318352,11.629403 2.50116105,11.6560448 C2.49531835,12.4239552 2.50554307,13.1918657 2.49629213,13.9597761 C1.667603,13.9655224 0.837940075,13.965 0.00925093633,13.9597761 C0.0034082397,9.32044776 0.00632958801,4.67850746 0.00779026217,0.0391791045 Z" id="p3"></path>
            </g>
            <g id="p4-link" transform="translate(44.000000, 2.000000)" fill-rule="nonzero">
                <path d="M0.0281343284,0.0470149254 C0.212947761,0.0308208955 0.397276119,0.0344776119 0.582089552,0.0355223881 C2.61940299,0.0365671642 4.65720149,0.0344776119 6.69402985,0.0365671642 C8.07212687,0.078880597 9.425,0.614850746 10.5033209,1.53895522 C11.4627985,2.35701493 12.200597,3.46238806 12.6061194,4.70723881 C12.9961194,5.89567164 13.0688806,7.19432836 12.831194,8.42768657 C12.5634328,9.81880597 11.8862687,11.1075373 10.9209701,12.075 C9.9163806,13.0983582 8.60425373,13.7523881 7.23003731,13.9174627 C7.00205224,13.9263433 6.77649254,13.965 6.54850746,13.9634328 C4.59220149,13.9623881 2.63541045,13.9634328 0.679104478,13.9629104 C0.456940299,13.9608209 0.248358209,13.9749254 0.028619403,13.9456716 C0.0281343284,9.31261194 0.028619403,4.68007463 0.0281343284,0.0470149254 Z M2.5291791,11.2997761 C3.88544776,11.2992537 5.24317164,11.3008209 6.59895522,11.2987313 C7.1441791,11.2679104 7.67970149,11.1472388 8.17496269,10.8933582 C8.91518657,10.5261194 9.54238806,9.90761194 9.9508209,9.14858209 C10.3117164,8.48828358 10.4931343,7.71149254 10.4960448,6.94776119 C10.4732463,6.23835821 10.3136567,5.53731343 9.98817164,4.91671642 C9.58022388,4.12738806 8.93652985,3.47910448 8.17350746,3.10246269 C7.59578358,2.80574627 6.94384328,2.68455224 6.30645522,2.69761194 C5.05253731,2.70179104 3.78843284,2.69186567 2.53597015,2.70231343 C2.51026119,2.77283582 2.50686567,2.84597015 2.50589552,2.92119403 C2.50783582,5.4991791 2.5063806,8.07873134 2.50686567,10.6567164 C2.50929104,10.878209 2.49182836,11.0819403 2.5291791,11.2997761 Z" id="p4"></path>
            </g>
            <g id="p5-link" transform="translate(71.000000, 2.000000)">
                <path d="M0.0155223881,0.0407462687 C0.220708955,0.0334328358 0.425410448,0.035 0.630597015,0.0360447761 C4.46268657,0.0360447761 8.29477612,0.0360447761 12.1268657,0.0360447761 C12.4004478,0.0370895522 12.6720896,0.0308208955 12.9456716,0.0407462687 C12.973806,0.319701493 12.9577985,0.603358209 12.961194,0.888059701 C12.9587687,1.48880597 12.9665299,2.09007463 12.9573134,2.6908209 C12.7123507,2.7038806 12.4688433,2.69708955 12.2238806,2.69813433 C8.98164179,2.6991791 5.73843284,2.69552239 2.49570896,2.69970149 C2.48697761,3.6619403 2.49231343,4.62470149 2.49279851,5.5869403 C2.48891791,5.64649254 2.51511194,5.6741791 2.57089552,5.67052239 C4.82164179,5.6741791 7.08791045,5.66843284 9.33817164,5.67313433 C9.34593284,6.56119403 9.34156716,7.44925373 9.34059701,8.33731343 C7.3105597,8.34201493 5.28003731,8.33783582 3.25,8.33940299 C2.99727612,8.34044776 2.74649254,8.33313433 2.49376866,8.34671642 C2.48600746,10.2168657 2.49764925,12.0880597 2.48843284,13.9587313 C1.66477612,13.965 0.840149254,13.9676119 0.0164925373,13.9571642 C0.0121268657,9.3188806 0.0140671642,4.67902985 0.0155223881,0.0407462687 Z" id="p5"></path>
            </g>
            <g id="p6-link" transform="translate(14.000000, 5.000000)" fill-rule="nonzero">
                <path d="M8.67230769,0.610429185 C8.90512821,0.711459227 9.11333333,0.849313305 9.34461538,0.951287554 C9.35487179,0.685493562 9.34615385,0.419699571 9.35128205,0.153905579 C10.2292308,0.148712446 11.1076923,0.151072961 11.985641,0.15248927 C11.9876923,3.7239485 11.9897436,7.29587983 11.9846154,10.8673391 C11.1082051,10.8748927 10.2287179,10.876309 9.35179487,10.8663948 C9.34512821,10.5944635 9.35538462,10.3220601 9.34461538,10.0501288 C9.16,10.1332189 8.99282051,10.2427468 8.81128205,10.3315021 C8.22717949,10.6341202 7.58564103,10.8281545 6.92564103,10.9301288 C6.40358974,11.004721 5.86205128,11.0037768 5.33692308,10.9612876 C4.32307692,10.8560086 3.34,10.5146781 2.51589744,9.95806867 C1.53846154,9.31223176 0.787179487,8.38549356 0.386153846,7.34167382 C0.0574358974,6.47866953 -0.0502564103,5.5306867 0.121538462,4.62802575 C0.323589744,3.43974249 0.978461538,2.31660944 1.93897436,1.50128755 C2.76410256,0.787939914 3.81179487,0.301201717 4.92615385,0.118497854 C6.17846154,-0.118025751 7.53384615,0.0878111588 8.67230769,0.610429185 Z M5.45589744,2.46579399 C4.64666667,2.57437768 3.88871795,2.99879828 3.38564103,3.58892704 C3.01333333,4.01948498 2.77128205,4.55060086 2.69538462,5.09587983 C2.67076923,5.47403433 2.65589744,5.87957082 2.76410256,6.24781116 C2.94615385,6.94085837 3.40205128,7.57914163 4.03384615,7.99412017 C4.60717949,8.38549356 5.33948718,8.59416309 6.05179487,8.58 C6.77025641,8.58283262 7.49282051,8.3439485 8.05897436,7.93888412 C8.70666667,7.4795279 9.15179487,6.79781116 9.29487179,6.05708155 C9.41589744,5.53540773 9.3225641,5.02270386 9.1374359,4.52463519 C8.83076923,3.75038627 8.21076923,3.09133047 7.41025641,2.7193133 C6.80871795,2.44738197 6.11538462,2.35484979 5.45589744,2.46579399 Z" id="p6"></path>
            </g>
            <g id="p7-link" transform="translate(31.000000, 5.000000)" fill-rule="nonzero">
                <path d="M6.91261803,0.0939484979 C8.43450644,0.302145923 9.8472103,1.08725322 10.7654936,2.21699571 C11.4406867,3.03845494 11.8676395,4.04922747 11.9381974,5.07746781 C11.9979399,5.46459227 11.9484979,5.84085837 11.9103863,6.22656652 C11.7759657,7.16416309 11.3773391,8.06540773 10.752103,8.81793991 C10.0624893,9.65545064 9.11124464,10.3041202 8.03587983,10.6648069 C7.12171674,10.9787554 6.1416309,11.050515 5.17545064,10.9471245 C4.10678112,10.8163519 3.08188841,10.4164807 2.2439485,9.79283262 C1.32309013,9.12103004 0.634506438,8.18201717 0.283776824,7.15377682 C0.00772532189,6.35072961 -0.0458369099,5.5 0.0793133047,4.66815451 C0.270901288,3.49828326 0.888412017,2.39403433 1.82008584,1.57399142 C3.13287554,0.382875536 5.09150215,-0.190729614 6.91261803,0.0939484979 Z M5.38300429,2.58948498 C4.70678112,2.72356223 4.08103004,3.02995708 3.60927039,3.49686695 C3.15038627,3.95150215 2.84806867,4.53266094 2.76154506,5.14781116 C2.74042918,5.39472103 2.74042918,5.65579399 2.76206009,5.90270386 C2.87433476,6.6788412 3.33476395,7.41248927 4.0176824,7.88412017 C4.44978541,8.18909871 4.96841202,8.39257511 5.50763948,8.46763948 C5.8151073,8.49454936 6.13287554,8.49313305 6.44034335,8.47 C7.13150215,8.38218884 7.77939914,8.08193133 8.27124464,7.62918455 C8.80738197,7.14763948 9.14987124,6.49141631 9.22042918,5.80639485 C9.28635193,5.22806867 9.15038627,4.62849785 8.84755365,4.1176824 C8.44377682,3.43077253 7.74077253,2.89776824 6.9239485,2.67304721 C6.43725322,2.52527897 5.88669528,2.53660944 5.38300429,2.58948498 Z" id="p7"></path>
            </g>
            <g id="p8-link" transform="translate(58.000000, 5.000000)" fill-rule="nonzero">
                <path d="M5.51124464,0.0358798283 C6.33579399,-0.0169957082 7.16343348,0.0736480687 7.94575107,0.319141631 C9.11845494,0.684549356 10.1495279,1.39034335 10.871073,2.31283262 C11.5977682,3.2367382 12.0066953,4.38253219 11.9855794,5.52360515 C11.9866094,5.88193133 11.9572532,6.237897 11.8666094,6.58725322 C8.90987124,6.59008584 5.95158798,6.5839485 2.99484979,6.59055794 C3.35381974,7.46914163 4.19433476,8.15227468 5.18575107,8.38077253 C5.79914163,8.53137339 6.46763948,8.50729614 7.06918455,8.32175966 C7.53888412,8.18154506 7.93905579,7.93133047 8.30266094,7.62965665 C8.56120172,7.83454936 8.79090129,8.06918455 9.03656652,8.28729614 C9.42695279,8.65553648 9.84412017,9.0039485 10.2169957,9.38682403 C9.31158798,10.2266953 8.09459227,10.7861373 6.8183691,10.9461803 C5.85476395,11.0519313 4.87467811,10.9773391 3.96154506,10.6671674 C2.82540773,10.2909013 1.82832618,9.59266094 1.12738197,8.69188841 C0.412532189,7.77695279 0.0144206009,6.64909871 0.0200858369,5.52360515 C0.00463519313,4.62755365 0.267296137,3.67957082 0.738540773,2.89446352 C1.35347639,1.85630901 2.3376824,1.01266094 3.51193133,0.524506438 C4.14386266,0.252575107 4.82060086,0.108583691 5.51124464,0.0358798283 Z M3.13957082,4.16017167 C4.63313305,4.17150215 6.12824034,4.16158798 7.6223176,4.1648927 C8.04257511,4.16158798 8.46386266,4.17291845 8.88412017,4.15875536 C8.58798283,3.55918455 7.98849785,3.07527897 7.3416309,2.80523605 C6.73081545,2.54652361 6.04944206,2.49459227 5.39072961,2.59798283 C4.44566524,2.76888412 3.55982833,3.36042918 3.13957082,4.16017167 Z" id="p8"></path>
            </g>
            <g id="p9-link" transform="translate(86.000000, 5.000000)">
                <path d="M0.0123076923,0.0144736842 C0.666538462,0.00578947368 1.32307692,0.00771929825 1.97769231,0.0139912281 C1.97923077,3.65991228 1.97846154,7.30631579 1.97807692,10.9522368 C1.87038462,10.9662281 1.76230769,10.9681579 1.65384615,10.9667105 C1.10615385,10.9614035 0.557692308,10.9720175 0.01,10.9614035 C0.005,7.42065789 0.01,3.87798246 0.00730769231,0.336754386 C0.00730769231,0.229649123 0.00538461538,0.121096491 0.0123076923,0.0144736842 Z" id="p9"></path>
            </g>
        </g>
    </g>
</svg>